<svg aria-hidden="true" style="position: absolute; width: 0; height: 0; overflow: hidden;" version="1.1"
    xmlns="http://www.w3.org/2000/svg" xmlns:xlink="http://www.w3.org/1999/xlink">
    <defs>
        <symbol id="icon-arrow-right" viewBox="0 0 32 32">
            <path
                d="M12.387 8.947c-0.52 0.52-0.52 1.36 0 1.88l5.173 5.173-5.173 5.173c-0.52 0.52-0.52 1.36 0 1.88s1.36 0.52 1.88 0l6.12-6.12c0.52-0.52 0.52-1.36 0-1.88l-6.12-6.12c-0.507-0.507-1.36-0.507-1.88 0.013z">
            </path>
        </symbol>
        <symbol id="icon-arrow-left" viewBox="0 0 32 32">
            <path
                d="M19.613 8.947c-0.52-0.52-1.36-0.52-1.88 0l-6.12 6.12c-0.52 0.52-0.52 1.36 0 1.88l6.12 6.12c0.52 0.52 1.36 0.52 1.88 0s0.52-1.36 0-1.88l-5.173-5.187 5.173-5.173c0.52-0.52 0.507-1.373 0-1.88z">
            </path>
        </symbol>
        <symbol id="icon-mission" viewBox="0 0 24 24">
            <path
                d="M12 7.636c-2.411 0-4.364 1.953-4.364 4.364s1.953 4.364 4.364 4.364c2.411 0 4.364-1.953 4.364-4.364s-1.953-4.364-4.364-4.364zM21.753 10.909c-0.502-4.549-4.113-8.16-8.662-8.662v-1.156c0-0.6-0.491-1.091-1.091-1.091s-1.091 0.491-1.091 1.091v1.156c-4.549 0.502-8.16 4.113-8.662 8.662h-1.156c-0.6 0-1.091 0.491-1.091 1.091s0.491 1.091 1.091 1.091h1.156c0.502 4.549 4.113 8.16 8.662 8.662v1.156c0 0.6 0.491 1.091 1.091 1.091s1.091-0.491 1.091-1.091v-1.156c4.549-0.502 8.16-4.113 8.662-8.662h1.156c0.6 0 1.091-0.491 1.091-1.091s-0.491-1.091-1.091-1.091h-1.156zM12 19.636c-4.222 0-7.636-3.415-7.636-7.636s3.415-7.636 7.636-7.636c4.222 0 7.636 3.415 7.636 7.636s-3.415 7.636-7.636 7.636z">
            </path>
        </symbol>
        <symbol id="icon-vision" viewBox="0 0 24 24">
            <path
                d="M13.203 1.805v0.024c0 0.804 0.54 1.476 1.296 1.716 3.42 1.068 5.904 4.248 5.904 8.016 0 0.624-0.072 1.212-0.204 1.788-0.168 0.768 0.144 1.56 0.828 1.968l0.012 0.012c1.032 0.6 2.376 0.060 2.652-1.092 0.204-0.864 0.312-1.764 0.312-2.676 0-5.4-3.576-9.984-8.496-11.484-1.14-0.348-2.304 0.528-2.304 1.728zM10.731 19.865c-3.588-0.516-6.504-3.432-7.032-7.008-0.648-4.32 1.992-8.124 5.796-9.312 0.768-0.228 1.308-0.912 1.308-1.716v-0.024c0-1.2-1.164-2.076-2.316-1.728-5.412 1.656-9.192 7.032-8.376 13.152 0.708 5.256 4.956 9.504 10.212 10.212 3.768 0.504 7.248-0.732 9.756-3.036 0.888-0.816 0.732-2.268-0.312-2.868-0.696-0.408-1.56-0.276-2.16 0.264-1.764 1.608-4.212 2.46-6.876 2.064z">
            </path>
        </symbol>
        <symbol id="icon-cash" viewBox="0 0 32 32">
            <path
                d="M19.043 20.396c0 0.124 0.049 0.244 0.137 0.331s0.207 0.137 0.331 0.137h1.379c-0.085 0.162-0.213 0.297-0.369 0.391s-0.336 0.144-0.518 0.145h-0.491c-0.092 0-0.182 0.027-0.258 0.078s-0.137 0.122-0.173 0.207-0.047 0.178-0.030 0.268c0.016 0.090 0.059 0.174 0.122 0.24l1.964 2.057c0.043 0.044 0.093 0.080 0.15 0.105s0.117 0.038 0.178 0.040c0.062 0.001 0.123-0.009 0.18-0.032s0.11-0.056 0.154-0.098 0.080-0.093 0.105-0.15c0.025-0.056 0.038-0.117 0.040-0.178s-0.009-0.123-0.032-0.18c-0.022-0.057-0.056-0.11-0.098-0.154l-1.279-1.339c0.328-0.095 0.625-0.273 0.862-0.519s0.405-0.549 0.488-0.88h0.326c0.124 0 0.244-0.049 0.331-0.137s0.137-0.207 0.137-0.331c0-0.124-0.049-0.244-0.137-0.331s-0.207-0.137-0.331-0.137h-0.325c-0.047-0.189-0.122-0.369-0.223-0.536h0.548c0.124 0 0.244-0.049 0.331-0.137s0.137-0.207 0.137-0.331c0-0.124-0.049-0.244-0.137-0.331s-0.207-0.137-0.331-0.137h-2.701c-0.124 0-0.244 0.049-0.331 0.137s-0.137 0.207-0.137 0.331c0 0.124 0.049 0.244 0.137 0.331s0.207 0.137 0.331 0.137h0.491c0.183 0 0.362 0.050 0.518 0.145s0.284 0.23 0.369 0.391h-1.379c-0.124 0-0.244 0.049-0.331 0.137s-0.137 0.207-0.137 0.331v0zM29.656 14.582h-11.805l-0.366-3.614c-0.060-0.579-0.232-1.141-0.505-1.655l-0.204-0.384-0.008-0.015c-0.001-0.002-0.002-0.004-0.003-0.006l-1.714-3.39c-0.137-0.27-0.343-0.499-0.597-0.663s-0.548-0.258-0.851-0.271c-0.017-0.001-0.035-0-0.052 0.001l-0.733 0.050c-2.196 0.149-4.392 0.298-6.588 0.447l-0.977 0.067c-0.161-0.005-0.322-0.013-0.484-0.023-0.115-0.007-0.231-0.016-0.354-0.027-0.023-0.213-0.111-0.413-0.253-0.573s-0.33-0.272-0.538-0.32l-3.041-0.762c-0.121-0.030-0.248-0.011-0.355 0.053s-0.183 0.168-0.214 0.288c-0.030 0.121-0.011 0.248 0.053 0.355s0.168 0.184 0.288 0.214l3.056 0.765c0.024 0.005 0.045 0.020 0.059 0.041s0.018 0.046 0.012 0.071l-1.517 6.693c-0.003 0.012-0.008 0.023-0.015 0.033s-0.016 0.019-0.027 0.025-0.022 0.011-0.034 0.013c-0.012 0.002-0.025 0.002-0.037-0.001l-1.28-0.29c-0.060-0.014-0.122-0.015-0.183-0.005s-0.119 0.033-0.171 0.066c-0.052 0.033-0.097 0.076-0.133 0.126s-0.061 0.107-0.074 0.167-0.015 0.122-0.005 0.183c0.010 0.061 0.033 0.119 0.065 0.171s0.076 0.097 0.126 0.133 0.107 0.061 0.167 0.074l1.28 0.29c0.075 0.017 0.153 0.026 0.23 0.026 0.234-0.001 0.46-0.080 0.642-0.226s0.31-0.349 0.361-0.577l0.007-0.033 0.901 0.623c0.225 0.155 0.47 0.279 0.729 0.367l1.256 0.428c-0.181 0.123-0.327 0.292-0.421 0.49s-0.136 0.417-0.118 0.635c0.001 0.012 0.002 0.025 0.003 0.037 0.029 0.309 0.172 0.595 0.401 0.804s0.528 0.324 0.838 0.324c0.015 0 0.029-0 0.044-0.001 0.274-0.010 0.547-0.019 0.821-0.029-0.112 0.233-0.152 0.494-0.117 0.75s0.147 0.496 0.319 0.689c0.172 0.193 0.397 0.331 0.647 0.397s0.514 0.056 0.758-0.028l0.776-0.265v8.605c0.001 0.621 0.248 1.217 0.687 1.657s1.035 0.687 1.656 0.687h17.589c0.621-0.001 1.217-0.248 1.657-0.687s0.686-1.035 0.687-1.657v-8.996c-0.001-0.621-0.248-1.217-0.687-1.656s-1.035-0.687-1.657-0.687zM6.487 14.866c-0.079 0.003-0.156-0.025-0.215-0.078s-0.096-0.125-0.103-0.204c-0-0.004-0.001-0.007-0.001-0.011l-0-0.003c-0.006-0.073 0.013-0.146 0.056-0.205s0.105-0.102 0.176-0.12c0.085-0.022 0.241-0.071 0.488-0.149 0.101-0.032 0.217-0.069 0.307-0.097l1.612 0.55-0.36 0.25c-0.653 0.023-1.306 0.046-1.959 0.068zM9.81 16.297l-1.166 0.399c-0.049 0.017-0.101 0.023-0.153 0.019s-0.102-0.020-0.148-0.045c-0.046-0.025-0.085-0.059-0.117-0.101s-0.054-0.089-0.067-0.139c-0.018-0.075-0.012-0.154 0.016-0.226s0.078-0.133 0.142-0.176l0.491-0.34c0.049-0.023 0.094-0.054 0.133-0.092l0.88-0.609 0.557 0.317c-0.269 0.279-0.464 0.621-0.568 0.994zM9.842 13.92c-0.026-0.015-0.053-0.027-0.081-0.036l-4.944-1.685c-0.177-0.060-0.344-0.144-0.498-0.25l-1.086-0.751c-0.040-0.027-0.083-0.049-0.13-0.063l1.158-5.111c0.009 0.001 0.018 0.003 0.028 0.004 0.318 0.029 0.637 0.048 0.957 0.057 0.014 0 0.029 0 0.044-0.001l1.002-0.068c2.196-0.148 4.392-0.297 6.588-0.447l0.704-0.048c0.132 0.010 0.259 0.053 0.369 0.127s0.199 0.174 0.259 0.292l1.729 3.42c0.002 0.003 0.003 0.006 0.005 0.009l0.204 0.384c0.217 0.408 0.353 0.853 0.401 1.312l0.357 3.517h-1.148l-0.317-2.569c-0.008-0.068-0.031-0.133-0.067-0.191s-0.084-0.107-0.142-0.145l-0.551-0.359c-0.003-0.002-0.006-0.004-0.009-0.006l-1.442-0.94c-0.159-0.103-0.337-0.173-0.523-0.205s-0.378-0.025-0.561 0.021c-0.184 0.045-0.356 0.128-0.507 0.242s-0.276 0.259-0.368 0.424c-0.079 0.141-0.133 0.296-0.159 0.456-0.004 0.024-0.007 0.048-0.010 0.072-0.005 0.049-0.008 0.098-0.008 0.147-0.001 0.209 0.046 0.416 0.137 0.604s0.225 0.353 0.389 0.482l4.299 3.385c0.079 0.061 0.141 0.141 0.181 0.233 0.050 0.117 0.064 0.246 0.037 0.371-0.010 0.046-0.026 0.091-0.046 0.134-0.001 0.002-0.002 0.004-0.003 0.007-0.050 0.101-0.127 0.186-0.223 0.245s-0.206 0.090-0.319 0.090c-0.105 0-0.208-0.027-0.299-0.079l-5.409-3.079zM16.732 17.466c0.020-0.023 0.038-0.047 0.057-0.072h11.085c0.084 0.316 0.249 0.604 0.48 0.834s0.519 0.397 0.834 0.48v5.43c-0.316 0.084-0.604 0.249-0.834 0.48s-0.397 0.519-0.48 0.834h-14.022c-0.084-0.316-0.249-0.604-0.48-0.834s-0.519-0.397-0.834-0.48v-5.43c0.316-0.084 0.604-0.249 0.834-0.48s0.397-0.519 0.48-0.834h0.2l0.736 0.419c0.314 0.178 0.68 0.241 1.035 0.178s0.677-0.249 0.909-0.525zM14.728 13.864l-2.524-1.987c-0.053-0.041-0.095-0.094-0.124-0.155s-0.044-0.127-0.044-0.194c-0-0.015 0.001-0.031 0.002-0.046 0.001-0.004 0.001-0.007 0.001-0.011s0.001-0.008 0.002-0.012c0.008-0.052 0.025-0.101 0.051-0.147 0.030-0.053 0.070-0.099 0.118-0.136s0.104-0.063 0.163-0.078c0.059-0.014 0.12-0.017 0.18-0.007s0.117 0.033 0.168 0.066l1.819 1.187 0.187 1.52zM31.063 25.922c-0 0.373-0.149 0.73-0.412 0.994s-0.621 0.412-0.994 0.412h-17.589c-0.373-0-0.73-0.149-0.994-0.412s-0.412-0.621-0.412-0.994v-8.996c0-0.221 0.053-0.439 0.152-0.635s0.245-0.368 0.423-0.498l1.757 1c-0.013 0.043-0.020 0.088-0.020 0.134-0 0.24-0.096 0.471-0.266 0.64s-0.4 0.265-0.64 0.266c-0.124 0-0.244 0.049-0.331 0.137s-0.137 0.207-0.137 0.331v6.246c0 0.124 0.049 0.244 0.137 0.331s0.207 0.137 0.331 0.137c0.24 0 0.471 0.096 0.64 0.266s0.265 0.4 0.266 0.64c0 0.124 0.049 0.244 0.137 0.331s0.207 0.137 0.332 0.137h14.839c0.124 0 0.244-0.049 0.331-0.137s0.137-0.207 0.137-0.331c0-0.24 0.096-0.471 0.266-0.64s0.4-0.265 0.64-0.266c0.124 0 0.244-0.049 0.331-0.137s0.137-0.207 0.137-0.331v-6.246c0-0.124-0.049-0.244-0.137-0.331s-0.207-0.137-0.331-0.137c-0.24-0-0.471-0.096-0.64-0.266s-0.265-0.4-0.266-0.64c0-0.124-0.049-0.244-0.137-0.331s-0.207-0.137-0.331-0.137h-11.189c-0.002-0.206-0.046-0.41-0.128-0.6-0.053-0.121-0.121-0.234-0.203-0.338h12.895c0.373 0 0.73 0.149 0.994 0.412s0.412 0.621 0.412 0.994v8.996z" />
        </symbol>
        <symbol id="icon-market" viewBox="0 0 23 32">
            <path
                d="M11.825 16.406c0 0.124 0.049 0.244 0.137 0.331s0.207 0.137 0.332 0.137h6.125c0.124 0 0.244-0.049 0.331-0.137s0.137-0.207 0.137-0.331c0-0.124-0.049-0.244-0.137-0.331s-0.207-0.137-0.331-0.137h-6.125c-0.124 0-0.244 0.049-0.332 0.137s-0.137 0.207-0.137 0.331zM22.534 10.442c0-0.004 0-0.009 0-0.014s0-0.026-0.003-0.039 0-0.011 0-0.016c-0.002-0.013-0.004-0.025-0.008-0.038l-0.004-0.015c-0.004-0.014-0.008-0.027-0.013-0.041 0 0 0-0.005 0-0.008l-0.004-0.009-1.74-4.379v-3.533c-0.001-0.622-0.248-1.218-0.688-1.657s-1.036-0.686-1.658-0.686h-2.779c-0.054-0.010-0.109-0.010-0.162 0h-8.427c-0.054-0.010-0.109-0.010-0.162 0h-2.777c-0.622 0-1.218 0.247-1.658 0.686s-0.687 1.036-0.688 1.657v3.346c-0 0.046 0.007 0.092 0.020 0.136l-1.758 4.439c0 0 0 0.005 0 0.008-0.005 0.013-0.009 0.027-0.013 0.041l-0.004 0.015c-0.003 0.012-0.006 0.025-0.007 0.038 0 0.006 0 0.011 0 0.016s0 0.026 0 0.039 0 0.009 0 0.014v1.914c-0 0.546 0.169 1.078 0.485 1.523s0.762 0.781 1.277 0.962v14.812c0.001 0.621 0.248 1.217 0.687 1.657s1.035 0.686 1.657 0.687h14.31c0.622 0 1.218-0.247 1.658-0.686s0.688-1.035 0.689-1.656v-14.813c0.517-0.178 0.966-0.514 1.284-0.959s0.489-0.979 0.49-1.526v-1.916h-0.002zM21.375 9.977h-3.309l-1.201-3.563h3.096l1.413 3.563zM13.892 10.914h3.383v1.443c-0.009 0.443-0.191 0.865-0.507 1.175s-0.742 0.484-1.185 0.484c-0.443 0-0.868-0.174-1.185-0.484s-0.498-0.732-0.507-1.175v-1.442zM13.844 9.977l-0.387-3.563h2.419l1.201 3.563h-3.233zM14.793 0.945l-0.431 0.856c-0.050 0.1-0.128 0.184-0.223 0.243s-0.206 0.089-0.318 0.088h-5.115c-0.112 0.001-0.222-0.030-0.318-0.088s-0.173-0.143-0.223-0.243l-0.431-0.856h7.060zM2.7 2.351c0-0.373 0.149-0.73 0.412-0.994s0.621-0.412 0.994-0.412h2.574l0.644 1.277c0.128 0.256 0.325 0.47 0.569 0.62s0.524 0.228 0.81 0.227h5.115c0.286 0.002 0.567-0.077 0.812-0.226s0.441-0.365 0.57-0.621l0.643-1.278h2.574c0.373 0 0.731 0.148 0.995 0.412s0.412 0.621 0.413 0.994v3.125h-17.125v-3.125zM12.95 10.914v1.443c0 0.449-0.178 0.879-0.496 1.196s-0.748 0.496-1.196 0.496c-0.449 0-0.879-0.178-1.196-0.496s-0.496-0.748-0.496-1.196v-1.442l3.384-0.001zM9.62 9.976l0.387-3.563h2.5l0.387 3.563h-3.274zM5.433 9.976l1.201-3.563h2.434l-0.387 3.563h-3.248zM8.632 10.914v1.443c-0.008 0.443-0.191 0.865-0.507 1.175s-0.742 0.484-1.185 0.484c-0.443 0-0.868-0.174-1.185-0.484s-0.498-0.732-0.507-1.175v-1.442l3.383-0.001zM2.562 6.413h3.082l-1.201 3.562h-3.293l1.412-3.563zM0.929 12.357v-1.443h3.384v1.442c0 0.449-0.178 0.879-0.496 1.196s-0.748 0.496-1.196 0.496-0.879-0.178-1.196-0.496c-0.317-0.317-0.496-0.748-0.496-1.196zM19.825 29.656c-0 0.373-0.149 0.73-0.412 0.994s-0.621 0.412-0.994 0.412h-14.31c-0.185 0-0.368-0.036-0.539-0.107s-0.326-0.174-0.457-0.305c-0.131-0.131-0.235-0.286-0.305-0.456s-0.107-0.354-0.108-0.539v-14.673c0.411-0.013 0.813-0.121 1.174-0.318s0.671-0.475 0.905-0.813c0.241 0.35 0.564 0.636 0.94 0.833s0.795 0.301 1.22 0.301c0.425 0 0.844-0.103 1.22-0.301s0.699-0.483 0.94-0.833c0.241 0.35 0.564 0.636 0.941 0.833s0.795 0.301 1.22 0.301 0.844-0.103 1.22-0.301c0.376-0.198 0.699-0.484 0.941-0.833 0.241 0.35 0.564 0.636 0.94 0.833s0.795 0.301 1.22 0.301 0.844-0.103 1.22-0.301c0.376-0.197 0.699-0.483 0.94-0.833 0.234 0.339 0.545 0.617 0.907 0.814s0.765 0.305 1.177 0.317v14.673zM21.599 12.357c0 0.449-0.178 0.879-0.496 1.196s-0.748 0.496-1.196 0.496c-0.449 0-0.879-0.178-1.196-0.496s-0.495-0.748-0.495-1.196v-1.442h3.384v1.442zM17.012 24.5h-3.313c-0.497 0-0.974 0.198-1.326 0.549s-0.549 0.829-0.549 1.326c0 0.497 0.198 0.974 0.549 1.326s0.829 0.549 1.326 0.549h3.313c0.497 0 0.974-0.198 1.326-0.549s0.549-0.828 0.549-1.326c0-0.497-0.198-0.974-0.549-1.326s-0.829-0.549-1.326-0.549zM17.012 27.312h-3.313c-0.249 0-0.487-0.099-0.663-0.275s-0.275-0.414-0.275-0.663c0-0.249 0.099-0.487 0.275-0.663s0.414-0.275 0.663-0.275h3.313c0.249 0 0.487 0.099 0.663 0.275s0.275 0.414 0.275 0.663c0 0.249-0.099 0.487-0.275 0.663s-0.414 0.275-0.663 0.275zM15.545 29.187h-8.562c-0.124 0-0.244 0.049-0.332 0.137s-0.137 0.207-0.137 0.331c0 0.124 0.049 0.244 0.137 0.331s0.207 0.137 0.332 0.137h8.562c0.124 0 0.244-0.049 0.332-0.137s0.137-0.207 0.137-0.331c0-0.124-0.049-0.244-0.137-0.331s-0.207-0.137-0.332-0.137zM18.42 17.812h-6.125c-0.124 0-0.244 0.049-0.331 0.137s-0.137 0.207-0.137 0.331c0 0.124 0.049 0.244 0.137 0.331s0.207 0.137 0.331 0.137h6.125c0.124 0 0.244-0.049 0.331-0.137s0.137-0.207 0.137-0.331c0-0.124-0.049-0.244-0.137-0.331s-0.207-0.137-0.331-0.137zM10.887 26.375c0-0.246-0.048-0.49-0.143-0.718s-0.232-0.434-0.406-0.608c-0.174-0.174-0.381-0.312-0.608-0.406s-0.471-0.143-0.718-0.143h-3.5c-0.497 0-0.974 0.198-1.326 0.549s-0.549 0.829-0.549 1.326c0 0.497 0.198 0.974 0.549 1.326s0.829 0.549 1.326 0.549h3.5c0.246 0 0.49-0.049 0.718-0.143s0.434-0.232 0.608-0.406c0.174-0.174 0.312-0.381 0.406-0.608s0.143-0.471 0.143-0.718zM4.575 26.375c0-0.249 0.099-0.487 0.275-0.663s0.414-0.275 0.663-0.275h3.5c0.249 0 0.487 0.099 0.663 0.275s0.275 0.414 0.275 0.663c0 0.249-0.099 0.487-0.275 0.663s-0.414 0.275-0.663 0.275h-3.5c-0.249 0-0.487-0.099-0.663-0.275s-0.275-0.414-0.275-0.663zM16.539 20.625c0.124 0 0.244-0.049 0.331-0.137s0.137-0.207 0.137-0.331c0-0.124-0.049-0.244-0.137-0.331s-0.207-0.137-0.331-0.137h-4.25c-0.124 0-0.244 0.049-0.331 0.137s-0.137 0.207-0.137 0.331c0 0.124 0.049 0.244 0.137 0.331s0.207 0.137 0.331 0.137h4.25zM4.109 23.375h6.313c0.124 0 0.244-0.049 0.331-0.137s0.137-0.207 0.137-0.331v-6.5c0-0.124-0.049-0.244-0.137-0.331s-0.207-0.137-0.331-0.137h-6.313c-0.124 0-0.244 0.049-0.331 0.137s-0.137 0.207-0.137 0.331v6.5c0 0.124 0.049 0.244 0.137 0.331s0.207 0.137 0.331 0.137zM9.95 22.404l-2.121-2.121 0.746-0.743 1.375 1.375v1.489zM4.575 16.875h5.375v2.717l-1.046-1.046c-0.044-0.044-0.095-0.078-0.152-0.102s-0.118-0.036-0.18-0.036c-0.062 0-0.123 0.012-0.179 0.036s-0.109 0.058-0.152 0.102l-1.075 1.075-1.074-1.075c-0.044-0.044-0.095-0.078-0.152-0.102s-0.118-0.036-0.179-0.036c-0.062 0-0.123 0.012-0.179 0.036s-0.109 0.058-0.152 0.102l-0.854 0.851v-2.522zM4.575 20.723l1.188-1.183 2.895 2.898h-4.082v-1.714z" />
        </symbol>
        <symbol id="icon-discount" viewBox="0 0 32 32">
            <path
                d="M20.392 11.494c-0.044-0.044-0.095-0.078-0.152-0.102s-0.118-0.036-0.179-0.036-0.122 0.012-0.179 0.036c-0.057 0.024-0.108 0.058-0.152 0.102l-8.236 8.236c-0.046 0.043-0.083 0.095-0.109 0.152s-0.039 0.12-0.040 0.183c-0.001 0.063 0.010 0.125 0.034 0.184s0.059 0.111 0.103 0.156 0.098 0.080 0.156 0.103c0.058 0.024 0.121 0.035 0.184 0.034s0.125-0.015 0.182-0.041c0.057-0.026 0.109-0.063 0.152-0.109l8.236-8.236c0.044-0.043 0.078-0.095 0.102-0.152s0.036-0.118 0.036-0.179c0-0.062-0.012-0.122-0.036-0.179s-0.058-0.108-0.102-0.152zM13.255 15.53c0.526-0 1.036-0.183 1.443-0.517s0.685-0.799 0.787-1.315c0.102-0.516 0.023-1.052-0.226-1.516s-0.65-0.828-1.136-1.029c-0.486-0.201-1.027-0.227-1.531-0.074s-0.938 0.476-1.231 0.914c-0.292 0.438-0.424 0.963-0.372 1.487s0.284 1.013 0.656 1.385c0.211 0.211 0.462 0.379 0.738 0.493s0.572 0.173 0.871 0.172zM12.308 12.308c0.187-0.187 0.426-0.315 0.685-0.366s0.529-0.025 0.774 0.076c0.245 0.101 0.454 0.273 0.601 0.493s0.226 0.479 0.226 0.744-0.079 0.524-0.226 0.744c-0.147 0.22-0.356 0.392-0.601 0.493s-0.514 0.128-0.774 0.076c-0.26-0.052-0.498-0.179-0.685-0.366-0.125-0.124-0.223-0.272-0.291-0.434s-0.102-0.337-0.102-0.512 0.035-0.35 0.102-0.512c0.068-0.162 0.166-0.31 0.291-0.434zM30.746 13.996c-0.413-0.395-0.84-0.804-0.919-1.149-0.084-0.369 0.129-0.938 0.334-1.489 0.293-0.786 0.596-1.598 0.259-2.296-0.343-0.71-1.177-0.981-1.983-1.243-0.552-0.179-1.122-0.364-1.35-0.65s-0.286-0.888-0.339-1.468c-0.080-0.841-0.159-1.711-0.773-2.201s-1.472-0.375-2.308-0.261c-0.58 0.077-1.18 0.156-1.517-0.006-0.324-0.157-0.631-0.667-0.926-1.162-0.438-0.73-0.89-1.486-1.666-1.662-0.75-0.17-1.468 0.304-2.165 0.761-0.496 0.329-1.008 0.664-1.395 0.664s-0.899-0.334-1.395-0.663c-0.697-0.458-1.418-0.931-2.168-0.761-0.776 0.176-1.228 0.932-1.666 1.662-0.296 0.494-0.602 1.005-0.926 1.162-0.337 0.162-0.938 0.083-1.517 0.006-0.835-0.111-1.698-0.226-2.308 0.261s-0.69 1.358-0.768 2.199c-0.053 0.58-0.108 1.179-0.339 1.468s-0.798 0.471-1.35 0.65c-0.806 0.262-1.64 0.533-1.983 1.243-0.337 0.698-0.034 1.511 0.259 2.296 0.206 0.551 0.418 1.12 0.334 1.489-0.079 0.345-0.506 0.754-0.919 1.149-0.618 0.591-1.257 1.203-1.257 2.005s0.639 1.414 1.257 2.005c0.413 0.395 0.84 0.804 0.919 1.149 0.084 0.369-0.129 0.938-0.334 1.489-0.293 0.786-0.596 1.598-0.259 2.296 0.343 0.71 1.177 0.981 1.981 1.243 0.552 0.179 1.122 0.364 1.35 0.65s0.286 0.888 0.339 1.468c0.077 0.841 0.157 1.71 0.77 2.199s1.473 0.372 2.308 0.261c0.58-0.077 1.18-0.156 1.517 0.006 0.324 0.157 0.631 0.668 0.926 1.162 0.438 0.73 0.89 1.486 1.666 1.662 0.104 0.023 0.211 0.035 0.318 0.035 0.634 0 1.25-0.404 1.847-0.796 0.496-0.326 1.008-0.663 1.395-0.663s0.899 0.337 1.395 0.663c0.697 0.457 1.417 0.931 2.165 0.761 0.776-0.176 1.228-0.932 1.666-1.662 0.296-0.494 0.602-1.005 0.926-1.162 0.337-0.162 0.938-0.082 1.517-0.006 0.835 0.111 1.698 0.226 2.308-0.261s0.692-1.358 0.77-2.199c0.053-0.58 0.108-1.179 0.339-1.468s0.798-0.471 1.35-0.65c0.806-0.262 1.64-0.533 1.983-1.243 0.337-0.698 0.034-1.511-0.259-2.296-0.206-0.551-0.418-1.12-0.334-1.489 0.079-0.345 0.506-0.754 0.919-1.149 0.621-0.591 1.259-1.202 1.259-2.005s-0.639-1.414-1.257-2.005l0.002 0.001zM30.098 17.328c-0.513 0.491-1.044 1-1.184 1.618-0.146 0.642 0.116 1.345 0.369 2.025 0.225 0.601 0.457 1.223 0.294 1.563-0.169 0.349-0.809 0.558-1.429 0.759-0.683 0.222-1.389 0.452-1.792 0.957s-0.474 1.25-0.54 1.968c-0.059 0.645-0.12 1.313-0.421 1.552s-0.959 0.149-1.6 0.063c-0.717-0.095-1.458-0.193-2.047 0.091-0.578 0.279-0.957 0.912-1.324 1.524-0.336 0.563-0.684 1.142-1.069 1.229-0.359 0.082-0.91-0.281-1.442-0.631-0.611-0.401-1.242-0.816-1.91-0.816s-1.299 0.415-1.91 0.816c-0.533 0.35-1.084 0.712-1.442 0.631-0.385-0.087-0.732-0.668-1.069-1.229-0.367-0.612-0.746-1.246-1.324-1.524-0.292-0.141-0.621-0.188-0.965-0.188-0.362 0.009-0.724 0.041-1.082 0.097-0.641 0.085-1.303 0.172-1.6-0.063s-0.361-0.909-0.423-1.554c-0.062-0.714-0.134-1.459-0.54-1.964s-1.11-0.738-1.792-0.96c-0.619-0.201-1.26-0.409-1.429-0.759-0.163-0.337 0.069-0.959 0.294-1.563 0.25-0.68 0.516-1.383 0.369-2.025-0.141-0.619-0.671-1.125-1.184-1.618-0.476-0.451-0.968-0.924-0.968-1.326s0.492-0.875 0.968-1.328c0.513-0.491 1.044-1 1.187-1.618 0.146-0.643-0.116-1.345-0.369-2.025-0.225-0.601-0.457-1.223-0.294-1.563 0.169-0.349 0.813-0.557 1.429-0.759 0.683-0.223 1.389-0.452 1.793-0.957s0.474-1.248 0.537-1.966c0.063-0.645 0.12-1.312 0.421-1.552s0.959-0.149 1.6-0.063c0.717 0.095 1.457 0.193 2.047-0.091 0.578-0.279 0.957-0.912 1.324-1.524 0.336-0.563 0.684-1.142 1.069-1.229 0.359-0.082 0.91 0.281 1.442 0.631 0.611 0.401 1.242 0.816 1.91 0.816s1.299-0.415 1.91-0.816c0.532-0.35 1.083-0.712 1.442-0.631 0.385 0.087 0.733 0.668 1.069 1.229 0.367 0.612 0.746 1.246 1.324 1.524 0.589 0.284 1.331 0.188 2.047 0.091 0.641-0.085 1.302-0.173 1.6 0.063s0.361 0.907 0.421 1.552c0.066 0.718 0.134 1.459 0.54 1.968s1.11 0.734 1.792 0.957c0.619 0.201 1.26 0.409 1.429 0.759 0.163 0.338-0.069 0.959-0.294 1.563-0.253 0.68-0.516 1.383-0.369 2.025 0.141 0.619 0.671 1.125 1.184 1.618 0.476 0.451 0.968 0.924 0.968 1.326s-0.492 0.875-0.968 1.327l0.003 0.001zM16 4.822c-6.164 0-11.178 5.014-11.178 11.178s5.014 11.178 11.178 11.178c6.164 0 11.178-5.014 11.178-11.178s-5.014-11.178-11.178-11.178zM16 26.241c-5.647 0-10.241-4.594-10.241-10.241s4.594-10.241 10.241-10.241c5.647 0 10.241 4.594 10.241 10.241s-4.594 10.241-10.241 10.241zM17.136 17.136c-0.318 0.318-0.535 0.724-0.623 1.166s-0.043 0.899 0.13 1.315c0.172 0.416 0.464 0.771 0.838 1.022s0.814 0.384 1.265 0.384c0.45 0 0.89-0.134 1.265-0.384s0.666-0.606 0.838-1.022c0.172-0.416 0.217-0.874 0.129-1.315s-0.305-0.847-0.623-1.166c-0.427-0.426-1.006-0.666-1.609-0.666s-1.182 0.239-1.609 0.666zM19.692 19.692c-0.187 0.187-0.426 0.315-0.686 0.366s-0.529 0.025-0.773-0.076c-0.245-0.101-0.454-0.273-0.601-0.493s-0.226-0.479-0.226-0.744 0.078-0.524 0.226-0.744c0.147-0.22 0.356-0.392 0.601-0.493s0.514-0.128 0.773-0.076c0.26 0.052 0.498 0.179 0.686 0.366 0.251 0.251 0.392 0.592 0.392 0.947s-0.141 0.695-0.392 0.947z" />
        </symbol>
        <symbol id="icon-headpodes" viewBox="0 0 24 24">
            <path
                d="M9.371 10.078c-0.566 0.404-0.925 0.808-1.078 1.17-0.157 0.322-0.241 0.656-0.251 1.088h3.717v-1.008h-2.371c0.067-0.096 0.15-0.198 0.249-0.283s0.282-0.215 0.549-0.405l0.427-0.3c0.36-0.254 0.619-0.483 0.776-0.691 0.24-0.312 0.36-0.668 0.36-1.069 0-0.524-0.17-0.944-0.509-1.262s-0.796-0.477-1.371-0.477c-0.727 0-1.232 0.277-1.517 0.818-0.15 0.284-0.233 0.645-0.251 1.125h1.036c0.012-0.288 0.052-0.532 0.12-0.672 0.117-0.242 0.338-0.366 0.662-0.366 0.237 0 0.419 0.075 0.546 0.227s0.191 0.342 0.191 0.572c0 0.282-0.111 0.541-0.333 0.778-0.145 0.152-0.463 0.404-0.954 0.755zM16.080 10.32h-0.624v-3.408h-1.195l-1.973 3.282v0.894h2.112v1.248h1.056v-1.248h0.624v-0.768zM14.4 10.32h-1.34l1.34-2.365v2.365z">
            </path>
            <path d="M8.208 14.208h-0.768v-0.816h-0.528v2.16h0.528v-1.008h0.768v1.008h0.432v-2.16h-0.432v0.816z"></path>
            <path
                d="M10.030 13.355c-0.304 0-0.536 0.083-0.696 0.248-0.215 0.195-0.323 0.487-0.323 0.877 0 0.382 0.108 0.674 0.323 0.877 0.161 0.165 0.393 0.248 0.696 0.248s0.536-0.083 0.696-0.248c0.214-0.203 0.321-0.495 0.321-0.877 0-0.389-0.107-0.682-0.321-0.877-0.161-0.165-0.393-0.248-0.696-0.248zM10.449 15.033c-0.103 0.13-0.243 0.195-0.419 0.195s-0.316-0.065-0.421-0.195c-0.105-0.13-0.157-0.314-0.157-0.554s0.052-0.424 0.157-0.554c0.105-0.13 0.245-0.195 0.421-0.195s0.315 0.065 0.419 0.195c0.103 0.13 0.155 0.315 0.155 0.553s-0.052 0.424-0.155 0.554zM12.672 14.725c0 0.146-0.033 0.253-0.067 0.32-0.054 0.119-0.178 0.179-0.357 0.179-0.18 0-0.292-0.060-0.346-0.179-0.034-0.067-0.047-0.174-0.047-0.32v-1.333h-0.48v1.334c0 0.226 0.040 0.402 0.111 0.528 0.131 0.231 0.384 0.346 0.751 0.346s0.6-0.115 0.73-0.346c0.070-0.126 0.088-0.302 0.088-0.528v-1.334h-0.384v1.333zM15.181 15.37c-0.008-0.035-0.013-0.1-0.013-0.197v-0.143c0-0.149-0.021-0.26-0.061-0.332s-0.11-0.129-0.208-0.168c0.117-0.040 0.201-0.109 0.252-0.207s0.076-0.197 0.076-0.298c0-0.084-0.013-0.158-0.039-0.223s-0.062-0.125-0.107-0.179c-0.054-0.065-0.121-0.129-0.199-0.162s-0.19-0.069-0.335-0.069h-1.058v2.16h0.48v-0.864h0.429c0.124 0 0.208 0.034 0.253 0.080s0.068 0.141 0.070 0.277l0.003 0.201c0.001 0.062 0.007 0.128 0.019 0.188 0.006 0.029 0.015 0.071 0.029 0.119h0.493v-0.060c-0.048-0.026-0.071-0.066-0.083-0.121zM14.655 14.345c-0.047 0.023-0.119 0.055-0.214 0.055h-0.474v-0.624h0.486c0.091 0 0.16 0.019 0.205 0.044 0.081 0.044 0.122 0.144 0.122 0.273 0 0.119-0.042 0.212-0.126 0.253zM17.12 14.49c-0.082-0.064-0.204-0.116-0.368-0.154l-0.373-0.088c-0.144-0.034-0.238-0.063-0.282-0.088-0.069-0.037-0.104-0.094-0.104-0.17 0-0.083 0.035-0.147 0.105-0.193s0.164-0.069 0.281-0.069c0.105 0 0.194 0.023 0.265 0.059 0.106 0.054 0.164 0.134 0.171 0.278h0.427c-0.008-0.24-0.092-0.404-0.252-0.523s-0.353-0.181-0.58-0.181c-0.272 0-0.477 0.062-0.617 0.187s-0.21 0.283-0.21 0.474c0 0.209 0.072 0.362 0.215 0.46 0.085 0.059 0.24 0.113 0.466 0.163l0.23 0.050c0.135 0.029 0.233 0.062 0.295 0.099s0.093 0.093 0.093 0.163c0 0.12-0.063 0.202-0.19 0.247-0.067 0.023-0.154 0.035-0.261 0.035-0.179 0-0.305-0.048-0.378-0.136-0.040-0.048-0.067-0.126-0.081-0.222h-0.424c0 0.24 0.080 0.399 0.24 0.526s0.38 0.192 0.66 0.192c0.274 0 0.486-0.063 0.636-0.191s0.225-0.289 0.225-0.483c0-0.189-0.063-0.333-0.19-0.433z">
            </path>
            <path fill="none" stroke="currentColor" stroke-linejoin="round" stroke-linecap="round"
                stroke-miterlimit="10" stroke-width="0.8571"
                d="M3.811 15.78c-0.793 0-1.435-0.643-1.435-1.435v-3.115c0-0.793 0.643-1.435 1.435-1.435s1.435 0.643 1.435 1.435v3.115c0 0.793-0.643 1.435-1.435 1.435zM20.256 15.78c-0.793 0-1.435-0.643-1.435-1.435v-3.115c0-0.793 0.643-1.435 1.435-1.435s1.435 0.643 1.435 1.435v3.115c0 0.793-0.643 1.435-1.435 1.435z">
            </path>
            <path fill="none" stroke="currentColor" stroke-linejoin="round" stroke-linecap="round"
                stroke-miterlimit="10" stroke-width="0.8571"
                d="M19.554 15.596v1.201c0 3.108-2.52 5.628-5.628 5.628h-1.892M4.526 9.938v-1.072c0-4.15 3.364-7.514 7.514-7.514s7.514 3.364 7.514 7.514v1.113">
            </path>
            <path fill="none" stroke="currentColor" stroke-linejoin="round" stroke-linecap="round"
                stroke-miterlimit="10" stroke-width="0.8571"
                d="M12.742 21.154h-1.527c-0.351 0-0.635 0.284-0.635 0.635s0.284 0.635 0.635 0.635h1.527c0.351 0 0.635-0.284 0.635-0.635s-0.284-0.635-0.635-0.635z">
            </path>
        </symbol>
        <symbol id="icon-like" viewBox="0 0 24 24">
            <path
                d="M18.574 13.217h-4.584v-2.779c0-0.637-0.253-1.247-0.703-1.697s-1.061-0.703-1.697-0.703c-0.127 0-0.249 0.051-0.339 0.141s-0.141 0.212-0.141 0.339v1.562c0.001 0.513-0.106 1.021-0.312 1.491s-0.509 0.891-0.888 1.238l-1.135 1.032v-0.336c0-0.386-0.153-0.757-0.427-1.030s-0.644-0.427-1.030-0.427h-1.894c-0.387 0-0.757 0.153-1.031 0.427s-0.428 0.644-0.428 1.030v8.318c0.001 0.387 0.155 0.757 0.428 1.030s0.644 0.427 1.031 0.427h1.891c0.228-0 0.453-0.054 0.656-0.157s0.38-0.252 0.515-0.436h8.794c0.274 0 0.537-0.109 0.731-0.303s0.303-0.457 0.303-0.731v-0.842c-0.001-0.183-0.051-0.361-0.144-0.518 0.136-0.096 0.248-0.224 0.324-0.372s0.116-0.313 0.115-0.48v-0.763c0.001-0.115-0.019-0.23-0.058-0.338 0.261-0.019 0.504-0.136 0.682-0.328s0.277-0.443 0.278-0.704v-0.842c-0.001-0.184-0.051-0.364-0.146-0.521 0.191-0.085 0.354-0.222 0.471-0.395s0.183-0.375 0.192-0.584v-0.583c0.007-0.653-0.636-1.164-1.454-1.164zM7.315 22.577h-1.891c-0.201 0-0.395-0.080-0.537-0.222s-0.223-0.335-0.224-0.536v-8.314c0.001-0.201 0.081-0.394 0.224-0.536s0.336-0.222 0.537-0.222h1.891c0.201 0 0.394 0.080 0.537 0.222s0.223 0.335 0.224 0.536v8.318c-0.001 0.201-0.081 0.394-0.224 0.536s-0.336 0.222-0.537 0.222v-0.005zM18.821 17.297c0 0.044-0.009 0.088-0.026 0.129s-0.042 0.078-0.073 0.109-0.068 0.056-0.109 0.073c-0.041 0.017-0.084 0.026-0.129 0.026h-2.165c-0.088 0.007-0.169 0.047-0.229 0.112s-0.093 0.149-0.093 0.237c0 0.088 0.033 0.173 0.093 0.237s0.141 0.105 0.229 0.112h1.25c0.044 0 0.088 0.009 0.129 0.026s0.078 0.042 0.109 0.073 0.056 0.068 0.073 0.109c0.017 0.041 0.026 0.084 0.026 0.129v0.773c0 0.044-0.008 0.088-0.025 0.129s-0.042 0.078-0.073 0.109-0.068 0.056-0.109 0.073c-0.041 0.017-0.085 0.025-0.129 0.025-0.038 0.001-0.075 0.008-0.11 0.022-0.059-0.012-0.119-0.020-0.18-0.022h-1.735c-0.088 0.007-0.169 0.047-0.229 0.112s-0.093 0.149-0.093 0.237c0 0.088 0.033 0.173 0.093 0.237s0.141 0.105 0.229 0.112h1.735c0.089 0 0.175 0.035 0.238 0.098s0.098 0.149 0.098 0.238v0.842c0 0.089-0.035 0.175-0.098 0.238s-0.149 0.098-0.238 0.098h-8.518c0.004-0.055 0.004-0.11 0-0.166v-7.037l1.606-1.459c0.453-0.411 0.814-0.912 1.062-1.471s0.377-1.163 0.378-1.774v-1.33c0.408 0.053 0.783 0.253 1.055 0.562s0.422 0.706 0.424 1.118v3.007c-0.001 0.116 0.039 0.228 0.114 0.316s0.179 0.146 0.294 0.164c0.023 0.002 0.046 0.002 0.070 0h4.8c0.449 0 0.763 0.24 0.763 0.466v0.583c0 0.221-0.314 0.466-0.763 0.466h-1.524c-0.088 0.007-0.169 0.047-0.229 0.112s-0.093 0.149-0.093 0.237c0 0.088 0.033 0.173 0.093 0.237s0.141 0.105 0.229 0.112h1.44c0.089 0 0.175 0.035 0.238 0.098s0.098 0.148 0.098 0.238l0.005 0.828z" />
            <path
                d="M6.403 11.609c0.058 0.030 0.123 0.044 0.188 0.039s0.128-0.028 0.18-0.067c0.053-0.039 0.093-0.092 0.117-0.153s0.030-0.127 0.018-0.191l-0.343-1.92 1.399-1.397c0.046-0.046 0.079-0.104 0.094-0.167s0.012-0.13-0.008-0.191c-0.020-0.062-0.058-0.117-0.108-0.159s-0.11-0.069-0.175-0.078l-1.944-0.271-0.878-1.75c-0.029-0.058-0.074-0.106-0.129-0.14s-0.118-0.052-0.183-0.052c-0.065 0-0.129 0.019-0.184 0.054s-0.099 0.084-0.128 0.143l-0.859 1.764-1.944 0.293c-0.064 0.010-0.125 0.038-0.174 0.080s-0.086 0.098-0.106 0.16c-0.020 0.062-0.022 0.128-0.006 0.192s0.049 0.121 0.096 0.166l1.414 1.363-0.322 1.937c-0.011 0.064-0.003 0.13 0.022 0.19s0.066 0.111 0.119 0.149c0.059 0.043 0.131 0.067 0.204 0.067 0.057-0 0.113-0.014 0.163-0.041l1.733-0.924 1.742 0.905zM4.495 10.001l-1.272 0.679 0.24-1.421c0.009-0.056 0.004-0.113-0.014-0.167s-0.049-0.103-0.089-0.142l-1.039-0.998 1.423-0.216c0.056-0.009 0.109-0.030 0.154-0.064s0.082-0.077 0.107-0.128l0.631-1.303 0.643 1.296c0.025 0.051 0.063 0.095 0.109 0.128s0.099 0.054 0.155 0.062l1.416 0.194-1.025 1.010c-0.041 0.040-0.071 0.088-0.088 0.143s-0.021 0.111-0.011 0.167l0.252 1.418-1.279-0.662c-0.049-0.024-0.103-0.036-0.158-0.035s-0.108 0.014-0.157 0.040zM22.762 7.567c-0.020-0.062-0.057-0.118-0.107-0.16s-0.111-0.070-0.176-0.080l-1.944-0.271-0.878-1.752c-0.029-0.058-0.074-0.106-0.129-0.14s-0.118-0.052-0.183-0.052c-0.065 0-0.129 0.019-0.184 0.054s-0.099 0.084-0.128 0.143l-0.859 1.764-1.942 0.293c-0.064 0.010-0.125 0.038-0.174 0.080s-0.086 0.098-0.106 0.16c-0.020 0.062-0.022 0.128-0.006 0.192s0.049 0.121 0.096 0.166l1.414 1.363-0.322 1.937c-0.010 0.065-0.002 0.131 0.024 0.19s0.068 0.111 0.122 0.148c0.059 0.043 0.131 0.067 0.204 0.067 0.057-0 0.113-0.014 0.163-0.041l1.733-0.924 1.74 0.905c0.058 0.030 0.123 0.044 0.188 0.039s0.128-0.028 0.18-0.067c0.053-0.039 0.093-0.092 0.117-0.153s0.030-0.127 0.018-0.191l-0.343-1.92 1.394-1.397c0.045-0.046 0.076-0.102 0.092-0.165s0.013-0.127-0.005-0.188zM20.657 8.935c-0.040 0.040-0.071 0.089-0.088 0.143s-0.021 0.111-0.011 0.167l0.24 1.418-1.277-0.662c-0.050-0.026-0.106-0.040-0.162-0.040s-0.112 0.014-0.162 0.040l-1.272 0.679 0.24-1.421c0.009-0.056 0.005-0.113-0.013-0.167s-0.048-0.103-0.088-0.143l-1.025-0.998 1.423-0.216c0.056-0.009 0.109-0.030 0.154-0.064s0.082-0.077 0.107-0.128l0.624-1.303 0.643 1.296c0.025 0.051 0.063 0.094 0.108 0.127s0.099 0.054 0.156 0.062l1.426 0.199-1.025 1.010zM10.097 4.934l-0.322 1.937c-0.009 0.063-0 0.126 0.025 0.184s0.065 0.108 0.117 0.145c0.059 0.044 0.13 0.068 0.204 0.067 0.057-0 0.113-0.014 0.163-0.041l1.733-0.924 1.742 0.905c0.056 0.033 0.12 0.050 0.185 0.048s0.128-0.021 0.183-0.056c0.053-0.038 0.094-0.091 0.118-0.152s0.031-0.127 0.019-0.191l-0.343-1.92 1.399-1.378c0.054-0.045 0.093-0.104 0.113-0.172s0.019-0.139-0.003-0.205c-0.021-0.067-0.062-0.125-0.117-0.168s-0.122-0.069-0.192-0.074l-1.944-0.271-0.876-1.754c-0.028-0.059-0.073-0.109-0.129-0.143s-0.12-0.052-0.186-0.051c-0.065 0.001-0.129 0.020-0.184 0.054s-0.099 0.084-0.128 0.142l-0.859 1.766-1.934 0.293c-0.064 0.010-0.125 0.037-0.174 0.079s-0.086 0.097-0.106 0.159c-0.020 0.062-0.022 0.128-0.006 0.191s0.049 0.12 0.096 0.165l1.406 1.363zM11.1 3.346c0.056-0.009 0.109-0.032 0.154-0.066s0.082-0.078 0.107-0.129l0.638-1.294 0.643 1.289c0.026 0.050 0.063 0.093 0.109 0.126s0.099 0.054 0.155 0.062l1.426 0.199-1.025 1.010c-0.042 0.039-0.074 0.087-0.093 0.141s-0.024 0.112-0.015 0.168l0.252 1.418-1.279-0.662c-0.050-0.027-0.105-0.041-0.162-0.041s-0.112 0.014-0.162 0.041l-1.272 0.677 0.24-1.421c0.008-0.055 0.003-0.112-0.015-0.165s-0.048-0.101-0.088-0.14l-1.037-0.998 1.423-0.216z" />
        </symbol>
        <symbol id="icon-reward" viewBox="0 0 24 24">
            <path fill="none" stroke="currentColor" stroke-linejoin="miter" stroke-linecap="butt" stroke-miterlimit="10"
                stroke-width="1.2"
                d="M23.535 12c0-6.37-5.164-11.535-11.535-11.535s-11.535 5.164-11.535 11.535c0 6.37 5.164 11.535 11.535 11.535s11.535-5.164 11.535-11.535z">
            </path>
            <path fill="none" stroke="currentColor" stroke-linejoin="miter" stroke-linecap="butt" stroke-miterlimit="10"
                stroke-width="1.2"
                d="M18.824 11.074c0-0.266-0.076-0.526-0.218-0.75s-0.346-0.403-0.587-0.516c-0.358-0.19-0.631-0.508-0.768-0.889l-0.028-0.074c-0.158-0.378-0.177-0.801-0.051-1.192 0.076-0.243 0.084-0.503 0.024-0.751s-0.188-0.474-0.369-0.654-0.407-0.308-0.654-0.369c-0.248-0.061-0.507-0.053-0.751 0.024-0.391 0.125-0.813 0.107-1.192-0.051l-0.075-0.033c-0.382-0.133-0.7-0.406-0.889-0.763-0.112-0.241-0.291-0.445-0.515-0.588s-0.485-0.219-0.751-0.219-0.526 0.076-0.751 0.219c-0.224 0.143-0.403 0.347-0.515 0.588-0.189 0.356-0.504 0.629-0.884 0.763l-0.079 0.033c-0.378 0.158-0.801 0.177-1.192 0.051-0.243-0.076-0.503-0.084-0.751-0.024s-0.474 0.188-0.654 0.369-0.308 0.407-0.369 0.654c-0.061 0.248-0.053 0.507 0.024 0.751 0.127 0.39 0.11 0.813-0.047 1.192-0.013 0.024-0.024 0.049-0.033 0.074-0.136 0.382-0.41 0.699-0.768 0.889-0.241 0.112-0.445 0.291-0.588 0.515s-0.219 0.485-0.219 0.751c0 0.266 0.076 0.527 0.219 0.751s0.347 0.403 0.588 0.515c0.357 0.189 0.631 0.504 0.768 0.884 0.009 0.027 0.020 0.054 0.033 0.079 0.147 0.376 0.157 0.791 0.028 1.173-0.076 0.243-0.084 0.503-0.024 0.751s0.188 0.474 0.369 0.654 0.407 0.308 0.654 0.369c0.248 0.061 0.507 0.053 0.751-0.024 0.39-0.129 0.813-0.113 1.192 0.047l0.079 0.033c0.381 0.136 0.696 0.41 0.884 0.768 0.112 0.241 0.291 0.445 0.515 0.588s0.485 0.219 0.751 0.219c0.266 0 0.527-0.076 0.751-0.219s0.403-0.347 0.515-0.588c0.189-0.359 0.507-0.633 0.889-0.768l0.074-0.033c0.378-0.159 0.802-0.176 1.192-0.047 0.243 0.076 0.503 0.084 0.751 0.024s0.474-0.188 0.654-0.369 0.308-0.407 0.369-0.654c0.061-0.248 0.053-0.507-0.024-0.751-0.125-0.391-0.107-0.813 0.051-1.192l0.028-0.079c0.137-0.38 0.411-0.696 0.768-0.884 0.241-0.108 0.447-0.283 0.593-0.504s0.226-0.479 0.231-0.743z">
            </path>
            <path fill="none" stroke="currentColor" stroke-linejoin="miter" stroke-linecap="butt" stroke-miterlimit="10"
                stroke-width="1.2" d="M9.552 11.097l1.62 1.615 3.277-3.277"></path>
            <path fill="none" stroke="currentColor" stroke-linejoin="miter" stroke-linecap="butt" stroke-miterlimit="10"
                stroke-width="1.2"
                d="M7.541 16.161l-1.341 2.504c-0.018 0.034-0.025 0.072-0.022 0.109s0.017 0.074 0.040 0.104c0.023 0.030 0.054 0.053 0.090 0.067s0.074 0.016 0.111 0.008l1.89-0.391c0.041-0.009 0.084-0.005 0.122 0.012s0.071 0.045 0.092 0.081l0.596 0.987c0.017 0.031 0.043 0.057 0.073 0.075s0.066 0.027 0.101 0.027c0.036 0 0.070-0.009 0.101-0.027s0.056-0.044 0.073-0.075l1.271-2.528M16.296 16.231l1.303 2.439c0.018 0.034 0.025 0.072 0.022 0.109s-0.017 0.074-0.040 0.104c-0.023 0.030-0.054 0.053-0.090 0.067s-0.074 0.016-0.111 0.008l-1.89-0.391c-0.041-0.009-0.084-0.005-0.122 0.012s-0.071 0.045-0.092 0.081l-0.596 0.987c-0.017 0.031-0.043 0.057-0.073 0.075s-0.066 0.027-0.101 0.027c-0.036 0-0.070-0.009-0.101-0.027s-0.056-0.044-0.073-0.075l-1.178-2.327">
            </path>
        </symbol>
        <symbol id="icon-human" viewBox="0 0 21 24">
            <path stroke-linejoin="miter" stroke-linecap="butt" stroke-miterlimit="4" stroke-width="0.6667"
                d="M18.697 5.052c0.729-0.159 1.471 0.229 1.727 0.932l0.045 0.145v0.001c0.2 0.798-0.284 1.618-1.092 1.805l-0.002 0.001c-1.696 0.382-3.53 0.651-5.284 0.812v13.030c-0 0.795-0.65 1.444-1.445 1.444s-1.444-0.649-1.444-1.444v-5.223h-1.556v5.223c-0 0.795-0.649 1.444-1.444 1.444s-1.445-0.649-1.445-1.444v-13.030c-1.754-0.161-3.589-0.43-5.295-0.812l-0.004-0.001c-0.798-0.189-1.279-1.009-1.080-1.805l0.001-0.001c0.202-0.794 0.994-1.246 1.771-1.077l0.001 0.001c2.616 0.582 5.535 0.836 8.272 0.836s5.657-0.253 8.272-0.836l0.001-0.001zM10.424 0.333c1.406 0 2.555 1.149 2.555 2.555s-1.149 2.556-2.555 2.556c-1.406-0-2.555-1.15-2.555-2.556s1.149-2.555 2.555-2.555z" />
        </symbol>
    </defs>
</svg>