<svg aria-hidden="true" style="position: absolute; width: 0; height: 0; overflow: hidden;" version="1.1" xmlns="http://www.w3.org/2000/svg" xmlns:xlink="http://www.w3.org/1999/xlink">
<defs>
<symbol id="icon-arrow-right" viewBox="0 0 32 32">
<path d="M12.387 8.947c-0.52 0.52-0.52 1.36 0 1.88l5.173 5.173-5.173 5.173c-0.52 0.52-0.52 1.36 0 1.88s1.36 0.52 1.88 0l6.12-6.12c0.52-0.52 0.52-1.36 0-1.88l-6.12-6.12c-0.507-0.507-1.36-0.507-1.88 0.013z"></path>
</symbol>
<symbol id="icon-arrow-left" viewBox="0 0 32 32">
<path d="M19.613 8.947c-0.52-0.52-1.36-0.52-1.88 0l-6.12 6.12c-0.52 0.52-0.52 1.36 0 1.88l6.12 6.12c0.52 0.52 1.36 0.52 1.88 0s0.52-1.36 0-1.88l-5.173-5.187 5.173-5.173c0.52-0.52 0.507-1.373 0-1.88z"></path>
</symbol>
<symbol id="icon-mission" viewBox="0 0 24 24">
<path d="M12 7.636c-2.411 0-4.364 1.953-4.364 4.364s1.953 4.364 4.364 4.364c2.411 0 4.364-1.953 4.364-4.364s-1.953-4.364-4.364-4.364zM21.753 10.909c-0.502-4.549-4.113-8.16-8.662-8.662v-1.156c0-0.6-0.491-1.091-1.091-1.091s-1.091 0.491-1.091 1.091v1.156c-4.549 0.502-8.16 4.113-8.662 8.662h-1.156c-0.6 0-1.091 0.491-1.091 1.091s0.491 1.091 1.091 1.091h1.156c0.502 4.549 4.113 8.16 8.662 8.662v1.156c0 0.6 0.491 1.091 1.091 1.091s1.091-0.491 1.091-1.091v-1.156c4.549-0.502 8.16-4.113 8.662-8.662h1.156c0.6 0 1.091-0.491 1.091-1.091s-0.491-1.091-1.091-1.091h-1.156zM12 19.636c-4.222 0-7.636-3.415-7.636-7.636s3.415-7.636 7.636-7.636c4.222 0 7.636 3.415 7.636 7.636s-3.415 7.636-7.636 7.636z"></path>
</symbol>
<symbol id="icon-vision" viewBox="0 0 24 24">
<path d="M13.203 1.805v0.024c0 0.804 0.54 1.476 1.296 1.716 3.42 1.068 5.904 4.248 5.904 8.016 0 0.624-0.072 1.212-0.204 1.788-0.168 0.768 0.144 1.56 0.828 1.968l0.012 0.012c1.032 0.6 2.376 0.060 2.652-1.092 0.204-0.864 0.312-1.764 0.312-2.676 0-5.4-3.576-9.984-8.496-11.484-1.14-0.348-2.304 0.528-2.304 1.728zM10.731 19.865c-3.588-0.516-6.504-3.432-7.032-7.008-0.648-4.32 1.992-8.124 5.796-9.312 0.768-0.228 1.308-0.912 1.308-1.716v-0.024c0-1.2-1.164-2.076-2.316-1.728-5.412 1.656-9.192 7.032-8.376 13.152 0.708 5.256 4.956 9.504 10.212 10.212 3.768 0.504 7.248-0.732 9.756-3.036 0.888-0.816 0.732-2.268-0.312-2.868-0.696-0.408-1.56-0.276-2.16 0.264-1.764 1.608-4.212 2.46-6.876 2.064z"></path>
</symbol>
</defs>
</svg>
